<?xml version="1.0" encoding="iso-8859-1"?>
<!-- Uploaded to: SVG Repo, www.svgrepo.com, Generator: SVG Repo Mixer Tools -->
<!DOCTYPE svg PUBLIC "-//W3C//DTD SVG 1.1//EN" "http://www.w3.org/Graphics/SVG/1.1/DTD/svg11.dtd">
<svg fill="#000000" version="1.1" id="Capa_1" xmlns="http://www.w3.org/2000/svg" xmlns:xlink="http://www.w3.org/1999/xlink" 
	 width="800px" height="800px" viewBox="0 0 321.995 321.995"
	 xml:space="preserve">
<g>
	<path d="M48.279,0c-9.968,0-18.06,8.088-18.06,18.059c0,2.558,0.543,4.981,1.507,7.176c1.642,3.732,4.248,11.487,4.248,18.276
		v266.187c0,6.791,5.51,12.298,12.298,12.298c6.789,0,12.298-5.507,12.298-12.298V43.511c0-6.795,2.609-14.544,4.243-18.276
		c0.967-2.195,1.507-4.618,1.507-7.176C66.326,8.088,58.253,0,48.279,0z"/>
	<g>
		<path d="M210.111,106.032c5.969-18.306,4.863-37.956,0.918-55.775c-16.345-5.503-30.456-18.029-50.926-26.538
			c-31.027-12.907-60.147-0.315-74.943,8.491c-5.833,3.474-10.139,12.439-10.139,19.227v122.475c0,6.785,4.441,9.019,10.286,5.566
			c11.277-6.672,30.321-15.896,49.36-15.896c21.95,0,45.023,18.915,68.791,29.327C200.359,170.656,199.41,138.831,210.111,106.032z"
			/>
		<path d="M281.952,30.081C260.07,45.798,243.9,52.112,230.396,52.932c3.351,18.766,3.65,39.206-2.751,58.82
			c-11.049,33.849-8.088,67.286-4.443,87.253c2.018,0.306,4.048,0.504,6.077,0.564c21.947,0.69,42.405-13.709,53.623-23.389
			c5.14-4.443,8.875-13.998,8.875-20.789V34.983C291.776,28.192,287.465,26.121,281.952,30.081z"/>
	</g>
</g>
</svg>