<?xml version="1.0" encoding="iso-8859-1"?>
<!-- Uploaded to: SVG Repo, www.svgrepo.com, Generator: SVG Repo Mixer Tools -->
<svg height="800px" width="800px" version="1.1" id="Capa_1" xmlns="http://www.w3.org/2000/svg" xmlns:xlink="http://www.w3.org/1999/xlink" 
	 viewBox="0 0 291.512 291.512" xml:space="preserve">
<g>
	<g>
		<path style="fill:#010002;" d="M145.772,0C65.459,0,0.375,65.111,0.375,145.392c0,80.286,65.089,146.12,145.397,146.12
			c80.291,0,145.364-65.834,145.364-146.12C291.137,65.111,226.064,0,145.772,0z M145.772,262.435
			c-64.235,0-116.314-52.792-116.314-117.038c0-64.241,52.079-116.32,116.314-116.32c64.219,0,116.287,52.074,116.287,116.32
			C262.06,209.643,209.991,262.435,145.772,262.435z"/>
		<path style="fill:#010002;" d="M145.756,54.195c-50.567,0-91.561,40.994-91.561,91.561s40.994,91.561,91.561,91.561
			c50.572,0,91.561-40.994,91.561-91.561S196.328,54.195,145.756,54.195z M145.756,87.743c6.032,0,10.927,4.89,10.927,10.927
			c0,6.032-4.89,10.927-10.927,10.927c-6.032,0-10.927-4.89-10.927-10.927C134.829,92.633,139.724,87.743,145.756,87.743z
			 M161.399,178.162c4.509,0,8.159,3.655,8.159,8.159s-3.65,8.159-8.159,8.159h-31.954c-4.509,0-8.159-3.655-8.159-8.159
			s3.65-8.159,8.159-8.159h8.153v-38.753h-8.153c-4.509,0-8.159-3.655-8.159-8.159s3.65-8.159,8.159-8.159h31.954
			c4.509,0,8.159,3.655,8.159,8.159s-3.65,8.159-8.159,8.159h-7.484v38.753H161.399z"/>
	</g>
</g>
</svg>